{"scene":0,"asset":{"generator":"ImageToStl.com","version":"2.0"},"scenes":[{"name":"Scene","nodes":[0]}],"nodes":[{"name":"Node0","children":[1,2,3,4,5,6,7,8,9,10,11,12,13,14]},{"name":"Node1","mesh":0},{"name":"Node2","mesh":1},{"name":"Node3","mesh":2},{"name":"Node4","mesh":3},{"name":"Node5","mesh":4},{"name":"Node6","mesh":5},{"name":"Node7","mesh":6},{"name":"Node8","mesh":7},{"name":"Node9","mesh":8},{"name":"Node10","mesh":9},{"name":"Node11","mesh":10},{"name":"Node12","mesh":11},{"name":"Node13","mesh":12},{"name":"Node14","mesh":13}],"materials":[{"name":"Textures","pbrMetallicRoughness":{"baseColorFactor":[0.8,0.8,0.8,1.0],"metallicFactor":0.5,"roughnessFactor":0.64},"emissiveFactor":[0.0,0.0,0.0],"doubleSided":true},{"name":"x1","pbrMetallicRoughness":{"baseColorFactor":[0.0,0.0,0.0,1.0],"metallicFactor":0.0,"roughnessFactor":1.0},"doubleSided":true}],"meshes":[{"name":"Mesh0","primitives":[{"indices":3,"material":0,"attributes":{"POSITION":0,"NORMAL":1,"TEXCOORD_0":2}}]},{"name":"Mesh0","primitives":[{"indices":7,"material":0,"attributes":{"POSITION":4,"NORMAL":5,"TEXCOORD_0":6}}]},{"name":"Mesh0","primitives":[{"indices":11,"material":0,"attributes":{"POSITION":8,"NORMAL":9,"TEXCOORD_0":10}}]},{"name":"Mesh0","primitives":[{"indices":15,"material":0,"attributes":{"POSITION":12,"NORMAL":13,"TEXCOORD_0":14}}]},{"name":"Mesh0","primitives":[{"indices":19,"material":1,"attributes":{"POSITION":16,"NORMAL":17,"TEXCOORD_0":18}}]},{"name":"Mesh0","primitives":[{"indices":23,"material":1,"attributes":{"POSITION":20,"NORMAL":21,"TEXCOORD_0":22}}]},{"name":"Mesh0","primitives":[{"indices":27,"material":1,"attributes":{"POSITION":24,"NORMAL":25,"TEXCOORD_0":26}}]},{"name":"Mesh0","primitives":[{"indices":31,"material":1,"attributes":{"POSITION":28,"NORMAL":29,"TEXCOORD_0":30}}]},{"name":"Mesh0","primitives":[{"indices":35,"material":1,"attributes":{"POSITION":32,"NORMAL":33,"TEXCOORD_0":34}}]},{"name":"Mesh0","primitives":[{"indices":39,"material":0,"attributes":{"POSITION":36,"NORMAL":37,"TEXCOORD_0":38}}]},{"name":"Mesh0","primitives":[{"indices":43,"material":0,"attributes":{"POSITION":40,"NORMAL":41,"TEXCOORD_0":42}}]},{"name":"Mesh0","primitives":[{"indices":47,"material":0,"attributes":{"POSITION":44,"NORMAL":45,"TEXCOORD_0":46}}]},{"name":"Mesh0","primitives":[{"indices":51,"material":1,"attributes":{"POSITION":48,"NORMAL":49,"TEXCOORD_0":50}}]},{"name":"Mesh0","primitives":[{"indices":55,"material":1,"attributes":{"POSITION":52,"NORMAL":53,"TEXCOORD_0":54}}]}],"accessors":[{"bufferView":0,"componentType":5126,"count":999,"type":"VEC3","min":[-0.34113437,-0.40875584,1.1789547],"max":[0.71,0.49047592,1.7360337]},{"bufferView":1,"componentType":5126,"count":999,"type":"VEC3"},{"bufferView":2,"componentType":5126,"count":999,"type":"VEC2"},{"bufferView":3,"componentType":5123,"count":11088,"type":"SCALAR"},{"bufferView":4,"componentType":5126,"count":188,"type":"VEC3","min":[-0.20538709,-0.27178782,1.4974768],"max":[0.07015428,0.000803411,1.6594434]},{"bufferView":5,"componentType":5126,"count":188,"type":"VEC3"},{"bufferView":6,"componentType":5126,"count":188,"type":"VEC2"},{"bufferView":7,"componentType":5123,"count":2034,"type":"SCALAR"},{"bufferView":8,"componentType":5126,"count":2601,"type":"VEC3","min":[-0.36787283,-0.32351515,0.0008458793],"max":[0.35697424,0.36440212,0.9652164]},{"bufferView":9,"componentType":5126,"count":2601,"type":"VEC3"},{"bufferView":10,"componentType":5126,"count":2601,"type":"VEC2"},{"bufferView":11,"componentType":5123,"count":32112,"type":"SCALAR"},{"bufferView":12,"componentType":5126,"count":3837,"type":"VEC3","min":[-0.34657052,-0.3685495,0.31213063],"max":[0.48817682,0.3539415,1.5271027]},{"bufferView":13,"componentType":5126,"count":3837,"type":"VEC3"},{"bufferView":14,"componentType":5126,"count":3837,"type":"VEC2"},{"bufferView":15,"componentType":5123,"count":48222,"type":"SCALAR"},{"bufferView":16,"componentType":5126,"count":559,"type":"VEC3","min":[-0.032460164,0.0051473156,1.4955178],"max":[0.03246018,0.070067674,1.5604383]},{"bufferView":17,"componentType":5126,"count":559,"type":"VEC3"},{"bufferView":18,"componentType":5126,"count":559,"type":"VEC2"},{"bufferView":19,"componentType":5123,"count":8640,"type":"SCALAR"},{"bufferView":20,"componentType":5126,"count":559,"type":"VEC3","min":[0.27798495,-0.003081588,1.3613281],"max":[0.34290528,0.06183877,1.4262486]},{"bufferView":21,"componentType":5126,"count":559,"type":"VEC3"},{"bufferView":22,"componentType":5126,"count":559,"type":"VEC2"},{"bufferView":23,"componentType":5123,"count":8640,"type":"SCALAR"},{"bufferView":24,"componentType":5126,"count":559,"type":"VEC3","min":[-0.34290528,-0.003081588,1.3613281],"max":[-0.27798495,0.06183877,1.4262486]},{"bufferView":25,"componentType":5126,"count":559,"type":"VEC3"},{"bufferView":26,"componentType":5126,"count":559,"type":"VEC2"},{"bufferView":27,"componentType":5123,"count":8640,"type":"SCALAR"},{"bufferView":28,"componentType":5126,"count":559,"type":"VEC3","min":[-0.032460164,-0.17822891,1.0970567],"max":[0.03246018,-0.113308564,1.1619772]},{"bufferView":29,"componentType":5126,"count":559,"type":"VEC3"},{"bufferView":30,"componentType":5126,"count":559,"type":"VEC2"},{"bufferView":31,"componentType":5123,"count":8640,"type":"SCALAR"},{"bufferView":32,"componentType":5126,"count":559,"type":"VEC3","min":[-0.032460164,-0.17822891,0.43844163],"max":[0.03246018,-0.113308564,0.503362]},{"bufferView":33,"componentType":5126,"count":559,"type":"VEC3"},{"bufferView":34,"componentType":5126,"count":559,"type":"VEC2"},{"bufferView":35,"componentType":5123,"count":8640,"type":"SCALAR"},{"bufferView":36,"componentType":5126,"count":82,"type":"VEC3","min":[-0.07313693,0.19347891,1.4873635],"max":[-0.055300616,0.19827574,1.5089421]},{"bufferView":37,"componentType":5126,"count":82,"type":"VEC3"},{"bufferView":38,"componentType":5126,"count":82,"type":"VEC2"},{"bufferView":39,"componentType":5123,"count":1278,"type":"SCALAR"},{"bufferView":40,"componentType":5126,"count":82,"type":"VEC3","min":[0.005807209,0.19370472,1.4903232],"max":[0.02369038,0.19848187,1.5119203]},{"bufferView":41,"componentType":5126,"count":82,"type":"VEC3"},{"bufferView":42,"componentType":5126,"count":82,"type":"VEC2"},{"bufferView":43,"componentType":5123,"count":1278,"type":"SCALAR"},{"bufferView":44,"componentType":5126,"count":57,"type":"VEC3","min":[-0.03730101,0.15264334,1.4189681],"max":[-0.0067650652,0.21056744,1.4410878]},{"bufferView":45,"componentType":5126,"count":57,"type":"VEC3"},{"bufferView":46,"componentType":5126,"count":57,"type":"VEC2"},{"bufferView":47,"componentType":5123,"count":936,"type":"SCALAR"},{"bufferView":48,"componentType":5126,"count":2102,"type":"VEC3","min":[-0.13255957,-0.009121649,1.2711171],"max":[0.088006906,0.24358937,1.6534016]},{"bufferView":49,"componentType":5126,"count":2102,"type":"VEC3"},{"bufferView":50,"componentType":5126,"count":2102,"type":"VEC2"},{"bufferView":51,"componentType":5123,"count":28575,"type":"SCALAR"},{"bufferView":52,"componentType":5126,"count":4666,"type":"VEC3","min":[-0.14169799,-0.026456237,1.4678707],"max":[0.13782208,0.2533999,1.689714]},{"bufferView":53,"componentType":5126,"count":4666,"type":"VEC3"},{"bufferView":54,"componentType":5126,"count":4666,"type":"VEC2"},{"bufferView":55,"componentType":5123,"count":63432,"type":"SCALAR"}],"bufferViews":[{"target":34962,"buffer":0,"byteLength":11988,"byteOffset":0},{"target":34962,"buffer":0,"byteLength":11988,"byteOffset":11988},{"target":34962,"buffer":0,"byteLength":7992,"byteOffset":23976},{"target":34963,"buffer":0,"byteLength":22176,"byteOffset":31968},{"target":34962,"buffer":0,"byteLength":2256,"byteOffset":54144},{"target":34962,"buffer":0,"byteLength":2256,"byteOffset":56400},{"target":34962,"buffer":0,"byteLength":1504,"byteOffset":58656},{"target":34963,"buffer":0,"byteLength":4068,"byteOffset":60160},{"target":34962,"buffer":0,"byteLength":31212,"byteOffset":64228},{"target":34962,"buffer":0,"byteLength":31212,"byteOffset":95440},{"target":34962,"buffer":0,"byteLength":20808,"byteOffset":126652},{"target":34963,"buffer":0,"byteLength":64224,"byteOffset":147460},{"target":34962,"buffer":0,"byteLength":46044,"byteOffset":211684},{"target":34962,"buffer":0,"byteLength":46044,"byteOffset":257728},{"target":34962,"buffer":0,"byteLength":30696,"byteOffset":303772},{"target":34963,"buffer":0,"byteLength":96444,"byteOffset":334468},{"target":34962,"buffer":0,"byteLength":6708,"byteOffset":430912},{"target":34962,"buffer":0,"byteLength":6708,"byteOffset":437620},{"target":34962,"buffer":0,"byteLength":4472,"byteOffset":444328},{"target":34963,"buffer":0,"byteLength":17280,"byteOffset":448800},{"target":34962,"buffer":0,"byteLength":6708,"byteOffset":466080},{"target":34962,"buffer":0,"byteLength":6708,"byteOffset":472788},{"target":34962,"buffer":0,"byteLength":4472,"byteOffset":479496},{"target":34963,"buffer":0,"byteLength":17280,"byteOffset":483968},{"target":34962,"buffer":0,"byteLength":6708,"byteOffset":501248},{"target":34962,"buffer":0,"byteLength":6708,"byteOffset":507956},{"target":34962,"buffer":0,"byteLength":4472,"byteOffset":514664},{"target":34963,"buffer":0,"byteLength":17280,"byteOffset":519136},{"target":34962,"buffer":0,"byteLength":6708,"byteOffset":536416},{"target":34962,"buffer":0,"byteLength":6708,"byteOffset":543124},{"target":34962,"buffer":0,"byteLength":4472,"byteOffset":549832},{"target":34963,"buffer":0,"byteLength":17280,"byteOffset":554304},{"target":34962,"buffer":0,"byteLength":6708,"byteOffset":571584},{"target":34962,"buffer":0,"byteLength":6708,"byteOffset":578292},{"target":34962,"buffer":0,"byteLength":4472,"byteOffset":585000},{"target":34963,"buffer":0,"byteLength":17280,"byteOffset":589472},{"target":34962,"buffer":0,"byteLength":984,"byteOffset":606752},{"target":34962,"buffer":0,"byteLength":984,"byteOffset":607736},{"target":34962,"buffer":0,"byteLength":656,"byteOffset":608720},{"target":34963,"buffer":0,"byteLength":2556,"byteOffset":609376},{"target":34962,"buffer":0,"byteLength":984,"byteOffset":611932},{"target":34962,"buffer":0,"byteLength":984,"byteOffset":612916},{"target":34962,"buffer":0,"byteLength":656,"byteOffset":613900},{"target":34963,"buffer":0,"byteLength":2556,"byteOffset":614556},{"target":34962,"buffer":0,"byteLength":684,"byteOffset":617112},{"target":34962,"buffer":0,"byteLength":684,"byteOffset":617796},{"target":34962,"buffer":0,"byteLength":456,"byteOffset":618480},{"target":34963,"buffer":0,"byteLength":1872,"byteOffset":618936},{"target":34962,"buffer":0,"byteLength":25224,"byteOffset":620808},{"target":34962,"buffer":0,"byteLength":25224,"byteOffset":646032},{"target":34962,"buffer":0,"byteLength":16816,"byteOffset":671256},{"target":34963,"buffer":0,"byteLength":57150,"byteOffset":688072},{"target":34962,"buffer":0,"byteLength":55992,"byteOffset":745224},{"target":34962,"buffer":0,"byteLength":55992,"byteOffset":801216},{"target":34962,"buffer":0,"byteLength":37328,"byteOffset":857208},{"target":34963,"buffer":0,"byteLength":126864,"byteOffset":894536}],"buffers":[{"byteLength":1021400,"uri":"data:application/octet-stream;base64,"}]}